<svg width="33" height="32" viewBox="0 0 33 32" fill="none" xmlns="http://www.w3.org/2000/svg">
<path d="M30.0536 13.1429H20.0357C19.7103 13.1429 19.4464 12.887 19.4464 12.5714V2.85714C19.4464 1.2793 18.1272 0 16.5 0C14.8728 0 13.5536 1.2793 13.5536 2.85714V12.5714C13.5536 12.887 13.2897 13.1429 12.9643 13.1429H2.94643C1.31927 13.1429 0 14.4222 0 16C0 17.5778 1.31927 18.8571 2.94643 18.8571H12.9643C13.2897 18.8571 13.5536 19.113 13.5536 19.4286V29.1429C13.5536 30.7207 14.8728 32 16.5 32C18.1272 32 19.4464 30.7207 19.4464 29.1429V19.4286C19.4464 19.113 19.7103 18.8571 20.0357 18.8571H30.0536C31.6807 18.8571 33 17.5778 33 16C33 14.4222 31.6807 13.1429 30.0536 13.1429Z" fill="#9DD2EE"/>
</svg>
