<svg width="35" height="36" viewBox="0 0 35 36" fill="none" xmlns="http://www.w3.org/2000/svg">
<path d="M17.5 0.71875C7.83125 0.71875 0 8.75341 0 18.6628C0 26.5925 5.01375 33.317 11.9656 35.6878C12.8406 35.8567 13.1615 35.3013 13.1615 34.825C13.1615 34.3989 13.1469 33.2698 13.1396 31.7739C8.27167 32.8559 7.245 29.3666 7.245 29.3666C6.44875 27.2955 5.29812 26.7416 5.29812 26.7416C3.71292 25.6292 5.42062 25.6521 5.42062 25.6521C7.17792 25.7769 8.10104 27.501 8.10104 27.501C9.66146 30.2446 12.1975 29.4518 13.1979 28.9938C13.3554 27.8327 13.806 27.0429 14.3063 26.594C10.4198 26.1451 6.335 24.6021 6.335 17.727C6.335 15.7685 7.01312 14.1677 8.13604 12.9123C7.93917 12.4588 7.34854 10.6343 8.28917 8.16299C8.28917 8.16299 9.75479 7.68212 13.1017 10.0027C14.5017 9.60405 15.9892 9.40623 17.4767 9.3971C18.9642 9.40623 20.4517 9.60405 21.8517 10.0027C25.1767 7.68212 26.6423 8.16299 26.6423 8.16299C27.5829 10.6343 26.9923 12.4588 26.8173 12.9123C27.9329 14.1677 28.611 15.7685 28.611 17.727C28.611 24.6204 24.5204 26.1375 20.6267 26.5788C21.2392 27.1175 21.8079 28.2177 21.8079 29.8992C21.8079 32.3005 21.786 34.23 21.786 34.8128C21.786 35.283 22.0923 35.8445 22.9892 35.665C29.9906 33.3094 35 26.5803 35 18.6628C35 8.75341 27.1644 0.71875 17.5 0.71875Z" fill="#9DD2EE"/>
</svg>
