<svg width="227" height="227" viewBox="0 0 227 227" fill="none" xmlns="http://www.w3.org/2000/svg">
<g clip-path="url(#clip0)">
<g filter="url(#filter0_d)">
<path d="M198.496 11.5424H59.9879C55.7383 11.5424 52.293 14.9878 52.293 19.2374V219.305C52.293 223.555 55.7383 227 59.9879 227H198.496C202.746 227 206.191 223.555 206.191 219.305V19.2374C206.191 14.9873 202.746 11.5424 198.496 11.5424ZM75.3774 42.3222C71.1278 42.3222 67.6824 38.8769 67.6824 34.6273C67.6824 30.3777 71.1278 26.9323 75.3774 26.9323C79.627 26.9323 83.0723 30.3777 83.0723 34.6273C83.0723 38.8769 79.6274 42.3222 75.3774 42.3222ZM129.242 42.3222C124.992 42.3222 121.547 38.8769 121.547 34.6273C121.547 30.3777 124.992 26.9323 129.242 26.9323C133.492 26.9323 136.937 30.3777 136.937 34.6273C136.937 38.8769 133.492 42.3222 129.242 42.3222ZM183.107 42.3222C178.857 42.3222 175.412 38.8769 175.412 34.6273C175.412 30.3777 178.857 26.9323 183.107 26.9323C187.356 26.9323 190.802 30.3777 190.802 34.6273C190.802 38.8769 187.356 42.3222 183.107 42.3222Z" fill="#5F8DB7"/>
<path d="M75.3774 30.7798C73.2524 30.7798 71.5299 29.0573 71.5299 26.9323V3.84747C71.5299 1.72245 73.2524 0 75.3774 0C77.5024 0 79.2249 1.72245 79.2249 3.84747V26.9323C79.2249 29.0569 77.5024 30.7798 75.3774 30.7798Z" fill="#BDC3C7"/>
<path d="M129.242 30.7798C127.117 30.7798 125.395 29.0573 125.395 26.9323V3.84747C125.395 1.72245 127.117 0 129.242 0C131.367 0 133.089 1.72245 133.089 3.84747V26.9323C133.089 29.0569 131.367 30.7798 129.242 30.7798Z" fill="#BDC3C7"/>
<path d="M183.107 30.7798C180.982 30.7798 179.259 29.0573 179.259 26.9323V3.84747C179.259 1.72245 180.982 0 183.107 0C185.232 0 186.954 1.72245 186.954 3.84747V26.9323C186.954 29.0569 185.231 30.7798 183.107 30.7798Z" fill="#BDC3C7"/>
<path d="M75.3773 80.7965C74.3567 80.7969 73.3782 80.3912 72.6573 79.669L64.9624 71.9741C63.4833 70.468 63.494 68.0512 64.9868 66.5584C66.4796 65.0656 68.8963 65.0545 70.4024 66.534L74.9601 71.0918L83.8424 59.2505C84.6675 58.151 86.0162 57.5755 87.3804 57.74C88.7446 57.9045 89.9178 58.785 90.4578 60.049C90.9973 61.313 90.8218 62.769 89.9967 63.8686L78.4543 79.2585C77.7852 80.1509 76.762 80.7087 75.6496 80.7876C75.5596 80.7929 75.4678 80.7965 75.3773 80.7965Z" fill="#90BAE1"/>
<path d="M75.3773 123.119C74.3567 123.119 73.3782 122.713 72.6573 121.991L64.9624 114.296C63.4833 112.79 63.494 110.373 64.9868 108.881C66.4796 107.388 68.8963 107.377 70.4024 108.856L74.9601 113.414L83.8424 101.573C84.6675 100.473 86.0162 99.8977 87.3804 100.062C88.7446 100.227 89.9178 101.107 90.4578 102.371C90.9973 103.635 90.8218 105.091 89.9967 106.191L78.4543 121.581C77.7852 122.473 76.762 123.031 75.6496 123.11C75.5596 123.115 75.4678 123.119 75.3773 123.119Z" fill="#90BAE1"/>
<path d="M190.801 76.949H102.31C100.185 76.949 98.4622 75.2266 98.4622 73.1016C98.4622 70.9765 100.185 69.2541 102.31 69.2541H190.801C192.926 69.2541 194.649 70.9765 194.649 73.1016C194.649 75.2266 192.926 76.949 190.801 76.949Z" fill="white"/>
<path d="M190.801 119.271H102.31C100.185 119.271 98.4622 117.549 98.4622 115.424C98.4622 113.299 100.185 111.576 102.31 111.576H190.801C192.926 111.576 194.649 113.299 194.649 115.424C194.649 117.549 192.926 119.271 190.801 119.271Z" fill="white"/>
<path d="M190.801 161.593H102.31C100.185 161.593 98.4622 159.871 98.4622 157.746C98.4622 155.621 100.185 153.898 102.31 153.898H190.801C192.926 153.898 194.649 155.621 194.649 157.746C194.649 159.87 192.926 161.593 190.801 161.593Z" fill="white"/>
<path d="M190.801 203.915H102.31C100.185 203.915 98.4622 202.193 98.4622 200.068C98.4622 197.943 100.185 196.22 102.31 196.22H190.801C192.926 196.22 194.649 197.943 194.649 200.068C194.649 202.193 192.926 203.915 190.801 203.915Z" fill="white"/>
<path d="M75.3773 157.746C74.3567 157.747 73.3777 157.342 72.6573 156.618L68.8098 152.771C67.3308 151.265 67.3414 148.848 68.8342 147.355C70.327 145.863 72.7437 145.851 74.2498 147.331L78.0973 151.178C79.1973 152.279 79.5262 153.933 78.9308 155.371C78.3358 156.808 76.9335 157.745 75.3773 157.746Z" fill="#90BAE1"/>
<path d="M75.3774 152.667V153.898C68.0282 153.899 61.0129 150.831 56.0247 145.434L28.7466 115.885L40.289 104.343L68.3754 134.776C72.8719 139.65 75.3716 146.036 75.3774 152.667Z" fill="#BDC3C7"/>
<path d="M40.2886 104.343L28.7466 115.885L22.9754 109.653C19.9153 106.338 20.1224 101.17 23.4369 98.1101C26.7519 95.0505 31.9193 95.2571 34.9793 98.5716L40.2886 104.343Z" fill="#90BAE1"/>
</g>
</g>
<defs>
<filter id="filter0_d" x="16.8091" y="0" width="193.382" height="235" filterUnits="userSpaceOnUse" color-interpolation-filters="sRGB">
<feFlood flood-opacity="0" result="BackgroundImageFix"/>
<feColorMatrix in="SourceAlpha" type="matrix" values="0 0 0 0 0 0 0 0 0 0 0 0 0 0 0 0 0 0 127 0"/>
<feOffset dy="4"/>
<feGaussianBlur stdDeviation="2"/>
<feColorMatrix type="matrix" values="0 0 0 0 0 0 0 0 0 0 0 0 0 0 0 0 0 0 0.25 0"/>
<feBlend mode="normal" in2="BackgroundImageFix" result="effect1_dropShadow"/>
<feBlend mode="normal" in="SourceGraphic" in2="effect1_dropShadow" result="shape"/>
</filter>
<clipPath id="clip0">
<rect width="227" height="227" fill="white"/>
</clipPath>
</defs>
</svg>
