<svg width="227" height="227" viewBox="0 0 227 227" fill="none" xmlns="http://www.w3.org/2000/svg">
<path d="M113.5 200.517C112.497 200.517 111.534 200.119 110.824 199.409C110.115 198.699 109.716 197.737 109.716 196.733V3.78319C109.717 1.69408 111.41 0 113.5 0C115.589 0 117.283 1.69408 117.283 3.78319V196.733C117.284 197.737 116.885 198.699 116.175 199.409C115.466 200.118 114.503 200.517 113.5 200.517Z" fill="#2C3E50"/>
<path d="M20.4172 99.899H37.8337V160.432H20.4172C15.4094 160.432 11.35 156.373 11.35 151.365V108.966C11.35 103.959 15.4094 99.899 20.4172 99.899Z" fill="#90BAE1"/>
<path d="M113.5 196.733C88.4262 196.733 68.1 208.59 68.1 223.216H158.9C158.9 208.59 138.574 196.733 113.5 196.733Z" fill="#9DD2EE"/>
<path d="M68.1005 99.899L79.9094 111.708C82.0379 113.836 84.9246 115.032 87.9351 115.032H102.15C108.419 115.032 113.5 120.114 113.5 126.382C113.5 132.65 108.419 137.732 102.15 137.732H80.3687C77.3583 137.732 74.4716 136.536 72.343 134.408L37.8341 99.899H68.1005Z" fill="#90BAE1"/>
<path d="M68.0999 159.77V209.634C68.0929 217.133 62.0162 223.209 54.5176 223.217H51.4154C43.9174 223.21 37.8407 217.133 37.8331 209.634V159.77H68.0999Z" fill="#90BAE1"/>
<path d="M68.0999 130.185V159.77H37.8331V99.9177L68.0999 130.185Z" fill="#B0D3F0"/>
<path d="M200.517 29.964H174.034V14.8308C173.946 12.8268 172.255 11.2706 170.25 11.35H117.283C115.279 11.2702 113.587 12.8264 113.5 14.8308V41.9196C113.587 43.9236 115.279 45.4798 117.283 45.4004H147.55V64.3172C147.541 65.3684 147.981 66.3735 148.761 67.0789C149.456 67.7364 150.377 68.1022 151.334 68.1004H200.517C202.604 68.0942 204.294 66.4041 204.3 64.3172V33.7472C204.294 31.6603 202.604 29.9702 200.517 29.964Z" fill="#287FCE"/>
<path d="M174.033 14.8308V45.4H117.283C115.279 45.4794 113.587 43.9236 113.5 41.9192V14.8308C113.587 12.8268 115.279 11.2706 117.283 11.35H170.25C172.254 11.2702 173.946 12.8264 174.033 14.8308Z" fill="#9DD2EE"/>
<path d="M204.3 33.7472V64.3164C204.294 66.4033 202.604 68.0933 200.517 68.0995H151.333C150.376 68.1013 149.456 67.7355 148.76 67.078L174.033 45.3995V29.964H200.516C202.604 29.9702 204.294 31.6603 204.3 33.7472Z" fill="#9DD2EE"/>
<path d="M52.9669 37.8332C43.7689 37.8332 34.962 41.5543 28.5511 48.1502C22.1401 54.746 18.6699 63.6544 18.9302 72.8488C19.6236 90.8186 34.0319 105.227 52.0017 105.92C61.1961 106.181 70.1045 102.711 76.7003 96.2994C83.2957 89.8885 87.0169 81.0816 87.0173 71.8836H60.5341C56.355 71.8836 52.9673 68.4959 52.9673 64.3168V37.8332H52.9669Z" fill="#B0D3F0"/>
<path d="M52.9668 37.8332V64.3164C52.9668 68.4955 56.3545 71.8832 60.5336 71.8832H87.0168C87.0168 53.0781 71.7719 37.8332 52.9668 37.8332Z" fill="#2FA8CC"/>
<path d="M223.217 227H3.78319C1.69408 227 0 225.306 0 223.217C0 221.127 1.69408 219.434 3.78319 219.434H223.216C225.306 219.434 227 221.128 227 223.217C227 225.306 225.306 227 223.217 227Z" fill="#41767F"/>
</svg>
