<svg width="50" height="50" viewBox="0 0 50 50" fill="none" xmlns="http://www.w3.org/2000/svg">
<path d="M44.4222 45.252C36.782 51.4889 12.926 51.4889 5.44171 45.252C-2.19847 39.0152 -1.41887 12.3526 5.44171 5.33609C12.3023 -1.68039 37.5616 -1.68039 44.4222 5.33609C51.2827 12.3526 52.0623 39.0153 44.4222 45.252Z" fill="#5CA4DA"/>
<path d="M25.0876 34.3378C18.227 39.7951 10.5868 42.6017 3.41445 42.7576C-1.88694 33.7141 -0.795436 11.7292 5.44144 5.33643C11.0546 -0.432646 28.6738 -1.52415 38.8087 2.06204C41.3034 12.3529 36.158 25.4503 25.0876 34.3378Z" fill="#6DAFE0"/>
<path d="M15.8887 15.471V9.70197H34.2874V14.3797L28.0505 21.3961C30.3893 21.8639 32.2604 22.7994 33.6637 24.5145C34.9111 26.0737 35.6907 27.9448 35.6907 30.1277C35.6907 33.2461 34.5992 35.7409 32.4163 37.612C30.2334 39.4831 27.5827 40.2627 24.1524 40.2627C20.878 40.2627 17.4478 39.0153 14.0176 36.6765L16.8242 31.3751C19.6308 33.4021 22.2815 34.3376 24.4643 34.3376C25.8676 34.3376 26.9591 34.0258 27.7387 33.4021C28.6742 32.7784 28.9861 31.8429 28.9861 30.5955C28.9861 29.3481 28.5183 28.4126 27.4269 27.633C26.4914 26.8534 25.0882 26.5415 23.2171 26.5415C22.2816 26.5415 20.8783 26.8533 19.1631 27.3211V22.3316L24.9321 15.471H15.8887Z" fill="white"/>
</svg>
