<svg width="50" height="50" viewBox="0 0 50 50" fill="none" xmlns="http://www.w3.org/2000/svg">
<path d="M44.3985 45.2522C36.7583 51.4891 12.9023 51.4891 5.41799 45.2522C-2.06628 39.0154 -1.44258 12.3527 5.41799 5.33627C12.2786 -1.68021 37.5379 -1.68021 44.3985 5.33627C51.259 12.3527 52.0386 39.0155 44.3985 45.2522Z" fill="#5CA4DA"/>
<path d="M25.0651 34.3378C18.2045 39.7951 10.5643 42.6017 3.39194 42.7576C-1.90933 33.7141 -0.817942 11.7292 5.41894 5.33643C11.0321 -0.432646 28.6513 -1.52415 38.7862 2.06204C41.2809 12.3529 36.1355 25.4503 25.0651 34.3378Z" fill="#6DAFE0"/>
<path d="M27.2534 21.4736C28.033 20.3821 28.3449 19.2908 28.3449 18.3553C28.3449 17.4198 28.0331 16.4842 27.4094 15.8605C26.7857 15.2368 25.8502 14.769 24.9146 14.769C23.0435 14.769 21.1725 16.1723 19.4573 18.823L14 15.7046C15.4033 13.5217 16.9625 11.8065 18.6777 10.7151C20.3929 9.6237 22.5758 9 25.0705 9C27.5651 9 29.904 9.7796 31.931 11.4948C33.958 13.2099 34.8935 15.3929 34.8935 18.1995C34.8935 19.7587 34.4257 21.3179 33.6461 22.7212C32.8665 24.1244 31.4632 25.9955 29.2803 28.1784L23.8231 33.7916H35.829V39.8726H14.4678V34.8831L23.3554 25.8397C25.2264 23.9684 26.4738 22.5651 27.2534 21.4736Z" fill="white"/>
</svg>
