<svg width="50" height="50" viewBox="0 0 50 50" fill="none" xmlns="http://www.w3.org/2000/svg">
<path d="M44.4844 45.3157C36.8336 51.5614 12.9441 51.5614 5.44933 45.3157C-2.20155 39.0701 -1.42086 12.3701 5.44933 5.34383C12.3195 -1.68248 37.6143 -1.68248 44.4844 5.34383C51.3546 12.3701 52.1353 39.0702 44.4844 45.3157Z" fill="#5CA4DA"/>
<path d="M25.1227 34.386C18.2525 39.8509 10.6016 42.6614 3.4192 42.8175C-1.88961 33.7614 -0.796582 11.7457 5.44904 5.34391C11.0701 -0.433252 28.7139 -1.52628 38.8631 2.06493C41.3613 12.3702 36.2087 25.4859 25.1227 34.386Z" fill="#6DAFE0"/>
<path d="M18.877 9.87195H31.0559V40.007H24.6541V15.6491H18.877V9.87195Z" fill="white"/>
</svg>
