<svg width="391" height="402" viewBox="0 0 391 402" fill="none" xmlns="http://www.w3.org/2000/svg">
<g clip-path="url(#clip0)">
<path d="M312.754 204.066C310.53 201.016 306.323 200.398 303.357 202.685C301.932 203.784 300.99 205.42 300.739 207.233L297.013 234.08C296.923 234.425 296.806 234.762 296.664 235.088C303.51 225.741 309.035 215.445 313.076 204.507L312.754 204.066Z" fill="white"/>
<path d="M290.361 240.002C290.045 240.002 289.728 239.981 289.414 239.94L249.541 234.08C245.871 233.539 243.323 230.043 243.849 226.269C243.849 226.269 243.849 226.269 243.849 226.268L247.575 199.421C248.094 195.647 245.54 192.155 241.869 191.621C240.113 191.365 238.329 191.834 236.908 192.927L215.804 209.193C212.838 211.48 208.63 210.863 206.406 207.813L182.241 174.686C180.016 171.636 180.617 167.311 183.583 165.024L204.681 148.757C207.647 146.47 208.248 142.145 206.023 139.095C204.954 137.63 203.363 136.661 201.6 136.404L175.488 132.566C171.817 132.03 169.265 128.535 169.788 124.762C169.788 124.759 169.789 124.756 169.789 124.754L175.488 83.7659C176.01 79.9925 179.409 77.3682 183.079 77.9057C183.081 77.9057 183.084 77.9066 183.086 77.9066L209.198 81.7438C211.884 82.1441 214.538 80.8311 215.911 78.4242C217.337 76.0319 217.176 72.9832 215.508 70.7635L199.7 49.0791C197.476 46.0295 198.076 41.704 201.043 39.417L204.849 36.4839C198.683 36.1776 192.503 36.3476 186.362 36.9946C120.061 44.7777 72.452 106.347 80.0222 174.513C84.1463 211.647 104.313 244.898 134.93 265.047C146.108 272.173 152.973 284.673 153.135 298.195V326.084C153.135 337.519 162.15 346.788 173.272 346.788H226.973C238.095 346.788 247.111 337.519 247.111 326.084V298.768C247.282 284.929 254.288 272.13 265.705 264.799C276.288 257.74 285.738 249.032 293.717 238.987C292.705 239.625 291.547 239.975 290.361 240.002ZM206.836 326.084H193.41V305.379H206.836V326.084ZM193.41 291.576C193.406 273.329 182.462 256.972 165.889 250.444C117.55 231.011 93.6866 174.97 112.588 125.271C119.906 106.028 133.033 89.7029 150.04 78.6933L157.162 90.3706C119.508 114.73 108.192 165.86 131.885 204.573C141.064 219.572 154.682 231.148 170.735 237.6C192.491 246.155 206.852 267.628 206.836 291.576H193.41Z" fill="white"/>
<path d="M173.272 381.296V388.197C173.272 395.821 179.283 402 186.698 402H213.548C220.963 402 226.973 395.821 226.973 388.197V381.296H173.272Z" fill="white"/>
<path d="M131.305 270.872C127.328 268.221 123.497 265.343 119.833 262.252C109.699 282.534 85.4937 290.529 65.767 280.111C52.34 273.02 43.9157 258.786 43.9601 243.266C43.9912 222.4 59.1055 204.812 79.2417 202.209C76.7782 194.592 74.9985 186.758 73.9253 178.806L72.7506 184.548C71.2252 192.008 64.1056 196.784 56.8501 195.215C55.1123 194.84 53.4644 194.114 52.0019 193.078L38.0396 183.223L25.8092 195.77L35.4217 210.139C39.6288 216.416 38.0899 225.012 31.9848 229.337C30.5206 230.374 28.871 231.102 27.1316 231.478L10.397 235.102V251.499L27.1316 255.123C34.3871 256.694 39.0306 264.014 37.5026 271.474C37.1359 273.265 36.4261 274.963 35.415 276.469L25.8092 290.762L38.0396 303.309L51.9885 293.426C58.0936 289.1 66.4542 290.683 70.6613 296.959C71.6699 298.465 72.3781 300.161 72.7439 301.949L76.2613 319.182H92.2173L95.7347 301.977C97.2618 294.517 104.381 289.742 111.637 291.312C113.376 291.688 115.026 292.417 116.49 293.454L130.432 303.309L144.831 288.505C142.417 281.21 137.642 274.986 131.305 270.872Z" fill="white"/>
<path d="M226.973 353.69H173.272V367.493H226.973V353.69Z" fill="white"/>
<path d="M367.731 118.977C356.721 117.359 349.072 106.869 350.646 95.5502C351.402 90.1144 354.227 85.21 358.501 81.9163L374.228 69.7835L358.118 47.6988L342.39 59.8247C333.495 66.6882 320.871 64.8369 314.197 55.6915C310.995 51.3056 309.617 45.7922 310.364 40.3625L313.144 20.3482L286.568 16.4489L283.789 36.4631C282.214 47.7824 272.013 55.6467 261.003 54.0283C255.716 53.251 250.946 50.3463 247.742 45.9527L235.942 29.7549L214.461 46.3185L226.255 62.4886C232.929 71.6357 231.128 84.6131 222.231 91.4757C217.956 94.7729 212.582 96.1877 207.292 95.4087L187.825 92.5515L184.013 119.881L203.479 122.739C214.489 124.358 222.138 134.846 220.564 146.166C219.808 151.601 216.983 156.506 212.709 159.799L196.988 171.932L213.098 194.017L228.826 181.891C237.723 175.029 250.345 176.882 257.02 186.029C260.227 190.424 261.603 195.949 260.845 201.388L258.066 221.402L284.702 225.322L287.481 205.308C289.056 193.989 299.258 186.124 310.267 187.743C315.554 188.52 320.324 191.425 323.528 195.818L335.329 211.982L356.809 195.418L344.975 179.22C338.303 170.071 340.108 157.094 349.007 150.235C353.272 146.946 358.633 145.532 363.911 146.3L383.378 149.157L387.17 121.834L367.731 118.977ZM285.615 162.27C263.371 162.27 245.339 143.731 245.339 120.861C245.339 97.9916 263.371 79.4525 285.615 79.4525C307.859 79.4525 325.891 97.9916 325.891 120.861C325.865 143.72 307.848 162.243 285.615 162.27Z" fill="white"/>
<path d="M374.651 257.069H327.663V270.872H374.651V257.069Z" fill="white"/>
<path d="M325.248 293.171L316.654 303.776L356.933 338.278L365.527 327.673L325.248 293.171Z" fill="white"/>
<path d="M300.812 312.281H287.387V360.591H300.812V312.281Z" fill="white"/>
<path d="M57.5238 105.439L3.82642 119.24L7.08042 132.624L60.7778 118.823L57.5238 105.439Z" fill="white"/>
<path d="M22.7754 37.516L14.9766 48.7418L61.9613 83.2457L69.7602 72.0198L22.7754 37.516Z" fill="white"/>
<path d="M85.4979 -0.00456421L72.4915 3.41443L86.2205 58.622L99.2269 55.203L85.4979 -0.00456421Z" fill="white"/>
</g>
<defs>
<clipPath id="clip0">
<rect width="391" height="402" fill="white"/>
</clipPath>
</defs>
</svg>
