<svg width="40" height="40" viewBox="0 0 40 40" fill="none" xmlns="http://www.w3.org/2000/svg">
<path d="M20 0C8.95 0 0 9.18247 0 20.5075C0 29.57 5.73 37.2551 13.675 39.9646C14.675 40.1577 15.0417 39.5229 15.0417 38.9785C15.0417 38.4916 15.025 37.2012 15.0167 35.4916C9.45333 36.7281 8.28 32.7404 8.28 32.7404C7.37 30.3735 6.055 29.7404 6.055 29.7404C4.24333 28.4691 6.195 28.4952 6.195 28.4952C8.20333 28.6378 9.25833 30.6082 9.25833 30.6082C11.0417 33.7438 13.94 32.8378 15.0833 32.3143C15.2633 30.9874 15.7783 30.0848 16.35 29.5717C11.9083 29.0587 7.24 27.2952 7.24 19.438C7.24 17.1997 8.015 15.3702 9.29833 13.9354C9.07333 13.4172 8.39833 11.332 9.47333 8.5077C9.47333 8.5077 11.1483 7.95814 14.9733 10.6103C16.5733 10.1546 18.2733 9.92855 19.9733 9.91811C21.6733 9.92855 23.3733 10.1546 24.9733 10.6103C28.7733 7.95814 30.4483 8.5077 30.4483 8.5077C31.5233 11.332 30.8483 13.4172 30.6483 13.9354C31.9233 15.3702 32.6983 17.1997 32.6983 19.438C32.6983 27.3161 28.0233 29.05 23.5733 29.5543C24.2733 30.17 24.9233 31.4274 24.9233 33.3491C24.9233 36.0934 24.8983 38.2986 24.8983 38.9646C24.8983 39.502 25.2483 40.1437 26.2733 39.9385C34.275 37.2464 40 29.5561 40 20.5075C40 9.18247 31.045 0 20 0Z" fill="#9DD2EE"/>
</svg>
