<svg width="227" height="227" viewBox="0 0 227 227" fill="none" xmlns="http://www.w3.org/2000/svg">
<g clip-path="url(#clip0)">
<path d="M213.381 123.69L190.758 104.299L137.316 77.5774C145.354 67.8657 146.677 54.2422 140.661 43.1644C134.644 32.0867 122.496 25.7808 109.973 27.236C98.3106 28.5625 88.4089 36.3881 84.4227 47.4284C80.4364 58.4688 83.0561 70.8148 91.1817 79.2858C91.7381 79.8659 92.2625 80.4695 92.7544 81.0971C92.2625 80.4704 91.7381 79.8667 91.1817 79.2858C90.6591 78.7405 90.1886 78.1485 89.7065 77.5663L36.2415 104.299L13.6186 123.69C12.6362 124.532 12.1403 125.811 12.2987 127.095C12.4568 128.379 13.2478 129.499 14.4051 130.078L84.1654 164.958L36.2415 140.996V184.508C36.2415 187.434 37.8948 190.109 40.5122 191.418L110.045 226.185C112.22 227.272 114.78 227.272 116.954 226.185L186.487 191.418C189.104 190.109 190.757 187.434 190.757 184.508V140.996L142.834 164.958L212.594 130.078C213.751 129.499 214.542 128.379 214.7 127.095C214.858 125.811 214.364 124.532 213.381 123.69Z" fill="#5F8DB7"/>
<path d="M137.316 77.5773C136.798 78.2028 136.27 78.8193 135.706 79.4015C131.314 84.0332 128.892 90.19 128.952 96.5728C128.952 100.84 125.493 104.299 121.226 104.299H105.774C101.508 104.299 98.0485 100.84 98.0485 96.5728V96.5697C98.0734 90.1383 95.6136 83.9464 91.1817 79.2858C90.6591 78.7405 90.1886 78.1485 89.7065 77.5662L36.2416 104.299L113.5 142.928L190.758 104.299L137.316 77.5773Z" fill="#363636"/>
<path d="M213.381 123.69L190.758 104.299L113.5 142.928L138.593 164.436C139.773 165.448 141.445 165.653 142.834 164.958L212.595 130.078C213.752 129.499 214.543 128.379 214.701 127.095C214.86 125.811 214.364 124.532 213.381 123.69Z" fill="#90BAE1"/>
<path d="M13.6186 123.69L36.242 104.299L113.5 142.928L88.4071 164.436C87.2271 165.448 85.5556 165.653 84.1658 164.958L14.4051 130.078C13.2478 129.499 12.4568 128.379 12.2987 127.095C12.1403 125.811 12.6362 124.532 13.6186 123.69Z" fill="#90BAE1"/>
<path d="M128.952 123.613H98.0485C95.9149 123.613 94.1855 121.884 94.1855 119.75C94.1855 117.617 95.9149 115.887 98.0485 115.887H128.952C131.085 115.887 132.815 117.617 132.815 119.75C132.814 121.884 131.085 123.613 128.952 123.613Z" fill="#9DD2EE"/>
<path d="M144.403 57.9435C144.422 44.0316 135.143 31.8213 121.734 28.1133C108.325 24.4053 94.0916 30.1129 86.96 42.0582C79.828 54.0032 81.556 69.2412 91.1817 79.2858C95.6131 83.9464 98.073 90.1388 98.048 96.5697V96.5729C98.048 100.84 101.507 104.299 105.774 104.299H121.226C125.492 104.299 128.952 100.84 128.952 96.5729C128.892 90.19 131.313 84.0332 135.706 79.402C141.292 73.6566 144.413 65.957 144.403 57.9435Z" fill="#9DD2EE"/>
<path d="M113.5 15.4517C112.475 15.4522 111.493 15.0453 110.768 14.3206C110.044 13.5959 109.637 12.6135 109.637 11.5888V3.86293C109.637 1.72937 111.367 0 113.5 0C115.634 0 117.363 1.72937 117.363 3.86293V11.5888C117.364 12.6135 116.957 13.5959 116.232 14.3206C115.507 15.0449 114.524 15.4517 113.5 15.4517Z" fill="#90BAE1"/>
<path d="M80.7218 29.0285C79.6971 29.0298 78.7142 28.6225 77.9908 27.8965L72.5285 22.4342C71.0244 20.9252 71.0266 18.4831 72.5334 16.9763C74.0398 15.47 76.4818 15.4677 77.9913 16.9714L83.4536 22.4337C84.558 23.5386 84.8883 25.1998 84.2905 26.643C83.6922 28.087 82.2842 29.0281 80.7218 29.0285Z" fill="#90BAE1"/>
<path d="M67.1449 61.8065H59.4191C57.2855 61.8065 55.5562 60.0771 55.5562 57.9436C55.5562 55.81 57.2855 54.0806 59.4191 54.0806H67.1449C69.2785 54.0806 71.0079 55.81 71.0079 57.9436C71.0079 60.0771 69.2785 61.8065 67.1449 61.8065Z" fill="#90BAE1"/>
<path d="M146.278 29.0285C144.716 29.0281 143.308 28.0871 142.71 26.6439C142.112 25.2008 142.442 23.5395 143.547 22.4347L149.009 16.9724C149.984 15.9939 151.408 15.6107 152.742 15.9672C154.077 16.3238 155.119 17.3663 155.476 18.7013C155.833 20.0358 155.45 21.4594 154.471 22.4347L149.009 27.897C148.286 28.6226 147.303 29.0299 146.278 29.0285Z" fill="#90BAE1"/>
<path d="M167.581 61.8065H159.855C157.721 61.8065 155.992 60.0771 155.992 57.9436C155.992 55.81 157.721 54.0806 159.855 54.0806H167.581C169.714 54.0806 171.444 55.81 171.444 57.9436C171.444 60.0771 169.714 61.8065 167.581 61.8065Z" fill="#90BAE1"/>
</g>
<defs>
<clipPath id="clip0">
<rect width="227" height="227" fill="white"/>
</clipPath>
</defs>
</svg>
