<?xml version="1.0" encoding="iso-8859-1"?>
<!-- Generator: Adobe Illustrator 16.0.0, SVG Export Plug-In . SVG Version: 6.00 Build 0)  -->
<!DOCTYPE svg PUBLIC "-//W3C//DTD SVG 1.1//EN" "http://www.w3.org/Graphics/SVG/1.1/DTD/svg11.dtd">
<svg version="1.1" id="Capa_1" xmlns="http://www.w3.org/2000/svg" xmlns:xlink="http://www.w3.org/1999/xlink" x="0px" y="0px"
	 width="46.961px" height="46.961px" viewBox="0 0 46.961 46.961" style="enable-background:new 0 0 46.961 46.961;"
	 xml:space="preserve">
<g>
	<g id="_x36_5_82_">
		<path d="M22.876,38.199c-4.069,0-8.137,0-12.206,0c-0.806,0-0.806,1.25,0,1.25c4.069,0,8.137,0,12.206,0
			C23.682,39.449,23.682,38.199,22.876,38.199z"/>
		<g>
			<path d="M12.295,10.221c2.605,0,5.21,0,7.815,0c0.806,0,0.806-1.25,0-1.25c-2.605,0-5.21,0-7.815,0
				C11.489,8.971,11.489,10.221,12.295,10.221z"/>
			<path d="M22.876,33.721c-4.069,0-8.137,0-12.206,0c-0.806,0-0.806,1.25,0,1.25c4.069,0,8.137,0,12.206,0
				C23.682,34.971,23.682,33.721,22.876,33.721z"/>
			<path d="M27.98,34.023c-0.309,0-0.613,0-0.92,0c-1.451,0-1.451,2.25,0,2.25c0.307,0,0.613,0,0.92,0
				C29.432,36.273,29.432,34.023,27.98,34.023z"/>
			<path d="M31.5,34.023c-0.307,0-0.611,0-0.918,0c-1.451,0-1.451,2.25,0,2.25c0.307,0,0.613,0,0.918,0
				C32.951,36.273,32.951,34.023,31.5,34.023z"/>
			<path d="M35.168,34.023c-0.307,0-0.613,0-0.92,0c-1.451,0-1.451,2.25,0,2.25c0.309,0,0.613,0,0.92,0
				C36.619,36.273,36.619,34.023,35.168,34.023z"/>
			<path d="M27.906,37.002c-0.307,0-0.613,0-0.918,0c-1.451,0-1.451,2.25,0,2.25c0.307,0,0.613,0,0.918,0
				C29.357,39.252,29.357,37.002,27.906,37.002z"/>
			<path d="M31.426,37.002c-0.307,0-0.611,0-0.918,0c-1.451,0-1.451,2.25,0,2.25c0.307,0,0.613,0,0.918,0
				C32.877,39.252,32.877,37.002,31.426,37.002z"/>
			<path d="M35.094,37.002c-0.307,0-0.613,0-0.92,0c-1.449,0-1.449,2.25,0,2.25c0.309,0,0.613,0,0.92,0
				C36.545,39.252,36.545,37.002,35.094,37.002z"/>
			<path d="M22.876,36.012c-4.069,0-8.137,0-12.206,0c-0.806,0-0.806,1.25,0,1.25c4.069,0,8.137,0,12.206,0
				C23.682,37.262,23.682,36.012,22.876,36.012z"/>
			<path d="M27.92,10.221c2.605,0,5.209,0,7.814,0c0.807,0,0.807-1.25,0-1.25c-2.605,0-5.209,0-7.814,0
				C27.113,8.971,27.113,10.221,27.92,10.221z"/>
			<path d="M33.297,13.013c0.807,0,0.807-1.25,0-1.25c-1.688,0-3.377,0-5.064,0c-0.807,0-0.807,1.25,0,1.25
				C29.92,13.013,31.609,13.013,33.297,13.013z"/>
			<path d="M27.641,26.615c0.164,0.527,0.904,0.693,1.182,0.16c0.359-0.689,0.719-1.381,1.076-2.07
				c0.238,0.656,0.477,1.314,0.715,1.975c0.102,0.281,0.316,0.492,0.623,0.492c2.023,0,1.047,0,3.072,0c0.834,0,0.834-1.342,0-1.342
				c-1.75,0-0.5,0-2.25,0c-0.229,0-0.363,0.033-0.443,0.072c0.006-0.119-0.023-0.324-0.145-0.66
				c-0.281-0.776-0.562-1.555-0.844-2.331c-0.184-0.508-0.895-0.712-1.184-0.159c-0.344,0.661-0.688,1.322-1.031,1.982
				c-0.564-1.821-1.131-3.643-1.697-5.463c-0.207-0.664-1.021-0.611-1.248,0c-0.604,1.634-1.207,6.268-1.81,7.9
				c-0.62-2.932-1.241-8.862-1.86-11.794c-0.139-0.656-1.09-0.625-1.248,0c-0.763,3.032-1.524,6.063-2.286,9.097
				c-0.43-0.914-0.859-1.828-1.289-2.742c-0.271-0.577-1-0.326-1.183,0.159c-0.435,1.156-0.869,2.314-1.303,3.474
				c-0.085,0.229-0.148,0.367-0.195,0.465c-0.635,0-1.271,0-1.906,0c-0.835,0-0.835,1.342,0,1.342c0.789,0,1.577,0,2.366,0
				c0.311,0,0.518-0.211,0.624-0.492c0.368-0.982,0.736-1.961,1.104-2.943c0.469,1,0.939,2,1.409,2.998
				c0.25,0.533,1.048,0.375,1.183-0.16c0.682-2.713,1.364-5.428,2.047-8.143c0.582,2.749,1.163,8.498,1.744,11.248
				c0.149,0.705,1.038,0.568,1.248,0c0.642-1.74,1.285-6.48,1.925-8.218C26.572,23.18,27.105,24.896,27.641,26.615z"/>
			<path d="M33.902,1.948V0H14.038v1.948H4.272v45.013h38.417V1.948H33.902z M39.688,43.961H7.272V4.948h6.766v1.385h19.864V4.948
				h5.787v39.013H39.688z"/>
		</g>
	</g>
</g>
<g>
</g>
<g>
</g>
<g>
</g>
<g>
</g>
<g>
</g>
<g>
</g>
<g>
</g>
<g>
</g>
<g>
</g>
<g>
</g>
<g>
</g>
<g>
</g>
<g>
</g>
<g>
</g>
<g>
</g>
</svg>
