<svg height="512pt" viewBox="-4 0 511 512" width="512pt" xmlns="http://www.w3.org/2000/svg"><path d="m86.75 207.003906c-9.523438 0-17.25-7.722656-17.25-17.25 0-66.585937 54.167969-120.753906 120.753906-120.753906 9.527344 0 17.25 7.726562 17.25 17.25 0 9.527344-7.722656 17.25-17.25 17.25-47.558594 0-86.253906 38.695312-86.253906 86.253906 0 9.527344-7.722656 17.25-17.25 17.25zm0 0"/><path d="m491.527344 438.664062-141.21875-147.324218c9.054687-14.21875 16.34375-29.535156 21.300781-45.617188 5.574219-18.058594 8.398437-36.890625 8.398437-55.96875 0-104.628906-85.125-189.753906-189.753906-189.753906s-189.753906 85.125-189.753906 189.753906 85.125 189.753906 189.753906 189.753906c12.425782 0 24.863282-1.210937 36.984375-3.605468 9.339844-1.84375 15.421875-10.914063 13.578125-20.265625-1.84375-9.332031-10.910156-15.5-20.265625-13.578125-9.914062 1.953125-20.105469 2.949218-30.296875 2.949218-85.601562 0-155.253906-69.652343-155.253906-155.253906 0-85.601562 69.652344-155.253906 155.253906-155.253906 85.601563 0 155.253906 69.652344 155.253906 155.253906 0 15.625-2.308593 31.03125-6.867187 45.804688-9.550781 30.96875-29.167969 58.824218-55.246094 78.417968-.246093.183594-.355469.460938-.585937.65625-.253906.210938-.578125.277344-.820313.503907-.660156.621093-.972656 1.429687-1.515625 2.121093-.699218.886719-1.425781 1.714844-1.933594 2.699219-.519531 1.015625-.785156 2.066407-1.089843 3.148438-.300781 1.054687-.628907 2.054687-.722657 3.144531-.097656 1.109375.050782 2.171875.167969 3.28125.109375 1.09375.183594 2.152344.507813 3.222656.332031 1.097656.925781 2.074219 1.484375 3.101563.402343.746093.558593 1.570312 1.082031 2.269531.191406.253906.484375.371094.6875.609375.203125.246094.261719.550781.484375.785156l149.136719 159.871094c8.402344 8.40625 19.449218 12.609375 30.5 12.609375 11.042968 0 22.085937-4.203125 30.492187-12.609375 16.820313-16.8125 16.820313-44.175781.257813-60.726563zm-24.65625 36.335938c-3.367188 3.351562-8.824219 3.367188-11.78125.425781l-136.378906-146.207031c3.5625-3.292969 6.992187-6.703125 10.289062-10.253906l137.871094 143.828125c3.363281 3.371093 3.363281 8.835937 0 12.207031zm0 0"/></svg>