<svg id="Capa_1" enable-background="new 0 0 511.98 511.98" height="512" viewBox="0 0 511.98 511.98" width="512" xmlns="http://www.w3.org/2000/svg"><g><g><g><g><g><g><g><g><g><path d="m255.99 511.98c-15.767 0-31.523-1.444-46.832-4.291-3.82-.711-6.883-3.57-7.854-7.332l-6.462-25.037c-17.572-4.886-34.461-11.872-50.354-20.828l-21.067 13.511c-3.372 2.162-7.71 2.104-11.021-.148-26.903-18.295-49.812-41.226-68.091-68.156-2.246-3.31-2.304-7.639-.147-11.007l13.506-21.1c-8.95-15.911-15.933-32.823-20.815-50.417l-25.009-6.467c-3.762-.973-6.619-4.037-7.328-7.856-2.845-15.322-4.287-31.092-4.287-46.872s1.442-31.55 4.286-46.872c.709-3.82 3.566-6.884 7.328-7.856l25.009-6.467c4.882-17.594 11.864-34.505 20.815-50.417l-13.506-21.098c-2.156-3.369-2.099-7.698.147-11.008 18.278-26.93 41.188-49.861 68.091-68.156 3.313-2.254 7.65-2.311 11.021-.148l21.067 13.511c15.894-8.956 32.782-15.942 50.354-20.828l6.462-25.037c.971-3.762 4.033-6.621 7.854-7.332 30.619-5.694 63.045-5.694 93.664 0 3.82.711 6.883 3.57 7.853 7.332l6.462 25.037c17.572 4.886 34.461 11.872 50.354 20.828l21.067-13.511c3.371-2.163 7.71-2.105 11.021.148 26.903 18.295 49.813 41.226 68.091 68.156 2.246 3.31 2.304 7.639.148 11.008l-13.506 21.099c8.95 15.911 15.933 32.823 20.815 50.417l25.009 6.467c3.762.973 6.619 4.037 7.328 7.856 2.844 15.322 4.286 31.092 4.286 46.872s-1.442 31.55-4.286 46.872c-.709 3.82-3.566 6.884-7.328 7.856l-25.009 6.467c-4.882 17.594-11.864 34.505-20.815 50.417l13.506 21.1c2.156 3.369 2.099 7.698-.148 11.007-18.279 26.93-41.188 49.86-68.091 68.156-3.313 2.253-7.65 2.311-11.021.148l-21.067-13.511c-15.894 8.956-32.782 15.942-50.354 20.828l-6.462 25.037c-.971 3.762-4.033 6.621-7.853 7.332-15.309 2.846-31.065 4.29-46.831 4.29zm-36.936-22.883c24.266 3.828 49.605 3.828 73.871 0l6.311-24.45c.916-3.55 3.702-6.314 7.26-7.203 19.76-4.935 38.636-12.755 56.104-23.243 3.258-1.957 7.347-1.897 10.546.156l20.569 13.192c20.724-14.938 38.729-32.964 53.653-53.71l-13.188-20.603c-2.047-3.196-2.106-7.276-.155-10.532 10.479-17.484 18.292-36.38 23.223-56.163.887-3.558 3.649-6.345 7.199-7.263l24.423-6.315c1.913-12.148 2.881-24.56 2.881-36.983s-.968-24.835-2.881-36.983l-24.423-6.315c-3.55-.918-6.313-3.705-7.199-7.263-4.931-19.782-12.744-38.678-23.223-56.163-1.951-3.255-1.892-7.335.155-10.532l13.188-20.602c-14.924-20.746-32.93-38.772-53.653-53.71l-20.569 13.192c-3.199 2.053-7.287 2.112-10.546.156-17.468-10.488-36.344-18.309-56.104-23.243-3.558-.889-6.344-3.653-7.26-7.203l-6.311-24.45c-24.266-3.828-49.605-3.828-73.871 0l-6.311 24.45c-.916 3.55-3.702 6.314-7.26 7.203-19.76 4.935-38.636 12.755-56.104 23.243-3.258 1.957-7.347 1.896-10.546-.156l-20.569-13.192c-20.724 14.938-38.729 32.964-53.653 53.71l13.188 20.602c2.047 3.197 2.106 7.277.155 10.532-10.479 17.484-18.292 36.38-23.223 56.163-.887 3.558-3.649 6.345-7.199 7.263l-24.423 6.315c-1.913 12.148-2.881 24.56-2.881 36.983s.968 24.835 2.881 36.983l24.423 6.315c3.55.918 6.313 3.705 7.199 7.263 4.931 19.782 12.744 38.678 23.223 56.163 1.951 3.255 1.892 7.336-.155 10.532l-13.188 20.603c14.924 20.746 32.93 38.772 53.653 53.71l20.569-13.192c3.2-2.052 7.287-2.112 10.546-.156 17.468 10.488 36.344 18.309 56.104 23.243 3.558.889 6.344 3.653 7.26 7.203zm278.578-188.071h.01z"/></g></g></g></g></g></g></g><g><g><g><g><path d="m431.639 270.11c-4.051 0-7.836-2.602-9.314-6.37-1.551-3.953-.321-8.657 2.961-11.35 3.331-2.733 8.28-2.994 11.877-.618 3.487 2.303 5.204 6.793 4.15 10.835-1.125 4.321-5.203 7.503-9.674 7.503z"/></g></g></g></g></g><g><g><g><g><path d="m255.99 286.748c-43.919 0-79.649-35.731-79.649-79.649s35.73-79.649 79.649-79.649 79.649 35.731 79.649 79.649-35.73 79.649-79.649 79.649zm0-139.299c-32.891 0-59.649 26.758-59.649 59.649s26.759 59.649 59.649 59.649 59.649-26.759 59.649-59.649-26.759-59.649-59.649-59.649z"/></g></g></g><g><path d="m427.57 295.052c-5.308-1.531-10.85 1.531-12.379 6.838-7.712 26.745-22.268 51.366-42.093 71.2-6.876 6.876-14.294 13.107-22.169 18.634v-54.544c0-18.318-14.902-33.22-33.22-33.22h-123.439c-18.317 0-33.22 14.902-33.22 33.22v54.738c-7.928-5.548-15.386-11.806-22.289-18.71-31.279-31.278-48.493-72.879-48.473-117.138.021-44.263 17.278-85.885 48.593-117.2 31.313-31.314 72.935-48.571 117.199-48.592h.08c44.228 0 85.798 17.213 117.058 48.473 20.08 20.08 34.719 45.065 42.332 72.255 1.49 5.319 7.017 8.419 12.326 6.933 5.318-1.489 8.423-7.008 6.934-12.326-8.538-30.491-24.946-58.502-47.449-81.005-35.04-35.04-81.626-54.33-131.2-54.33h-.09c-49.602.023-96.243 19.361-131.332 54.45-35.089 35.09-54.427 81.732-54.45 131.333-.023 49.604 19.271 96.231 54.33 131.289 12.394 12.394 26.39 22.933 41.6 31.325.006.003.012.006.019.009 27.28 15.044 58.25 22.993 89.581 22.993h.181c31.393-.031 62.432-8.044 89.759-23.173.004-.002.007-.003.01-.005 15.144-8.374 29.097-18.894 41.473-31.272 22.211-22.22 38.521-49.814 47.166-79.799 1.53-5.304-1.531-10.847-6.838-12.376zm-246.52 108.842v-66.714c0-7.29 5.931-13.22 13.22-13.22h123.44c7.289 0 13.22 5.931 13.22 13.22v66.556c-46.734 23.713-103.134 23.772-149.88.158z"/></g></g></g></svg>