<svg id="Capa_1" enable-background="new 0 0 512 512" height="512" viewBox="0 0 512 512" width="512" xmlns="http://www.w3.org/2000/svg" xmlns:xlink="http://www.w3.org/1999/xlink"><linearGradient id="SVGID_1_" gradientUnits="userSpaceOnUse" x1="256" x2="256" y1="512" y2="0"><stop offset="0" stop-color="#5558ff"/><stop offset="1" stop-color="#00c0ff"/></linearGradient><g><g><path d="m107.343 28.249c6.212-5.48 6.807-14.958 1.326-21.171-5.479-6.213-14.959-6.807-21.172-1.327-54.97 48.487-86.497 118.195-86.497 191.249 0 8.284 6.716 15 15 15s15-6.716 15-15c0-64.449 27.826-125.956 76.343-168.751zm317.16-22.498c-6.214-5.48-15.693-4.885-21.172 1.327-5.48 6.213-4.886 15.691 1.326 21.171 48.517 42.795 76.343 104.302 76.343 168.751 0 8.284 6.716 15 15 15s15-6.716 15-15c0-73.054-31.527-142.762-86.497-191.249zm-348.503 206.249c8.284 0 15-6.716 15-15 0-48.12 21.022-93.763 57.677-125.226 6.286-5.396 7.008-14.866 1.612-21.152-5.396-6.287-14.867-7.008-21.151-1.612-43.303 37.169-68.138 91.109-68.138 147.99 0 8.284 6.716 15 15 15zm315 80.147v-95.147c0-69.369-52.594-126.676-120-134.162v-47.838c0-8.284-6.716-15-15-15s-15 6.716-15 15v47.838c-67.406 7.486-120 64.793-120 134.162v95.147c0 50.71-19.747 98.385-55.604 134.244-9.283 9.276-2.944 25.609 10.604 25.609h135v15c0 24.813 20.187 45 45 45s45-20.187 45-45v-15h135c13.51 0 19.911-16.308 10.604-25.608-35.857-35.859-55.604-83.535-55.604-134.245zm-120 174.853c0 8.271-6.729 15-15 15s-15-6.729-15-15v-15h30zm-162.437-45c10.327-14.097 18.935-29.382 25.701-45.719 11.105-26.809 16.736-55.116 16.736-84.134v-95.147c0-57.897 47.103-105 105-105s105 47.103 105 105v95.147c0 29.018 5.631 57.325 16.735 84.134 6.767 16.336 15.374 31.622 25.701 45.719zm274.299-372.99c-6.286-5.396-15.756-4.674-21.151 1.612-5.396 6.286-4.674 15.756 1.612 21.152 36.655 31.463 57.677 77.106 57.677 125.226 0 8.284 6.716 15 15 15s15-6.716 15-15c0-56.881-24.835-110.821-68.138-147.99z" fill="url(#SVGID_1_)"/></g></g></svg>